<?xml version="1.0" encoding="UTF-8"?>
<!DOCTYPE svg PUBLIC "-//W3C//DTD SVG 1.1//EN" "http://www.w3.org/Graphics/SVG/1.1/DTD/svg11.dtd">
<!-- Creator: CorelDRAW 2020 (64-Bit) -->
<svg xmlns="http://www.w3.org/2000/svg" xml:space="preserve" width="38.5074mm" height="11.669mm" version="1.1" style="shape-rendering:geometricPrecision; text-rendering:geometricPrecision; image-rendering:optimizeQuality; fill-rule:evenodd; clip-rule:evenodd"
viewBox="0 0 421.32 127.67"
 xmlns:xlink="http://www.w3.org/1999/xlink"
 xmlns:xodm="http://www.corel.com/coreldraw/odm/2003">
 <defs>
  <style type="text/css">
   <![CDATA[
    .fil3 {fill:#D1C8DB}
    .fil4 {fill:#00D1F2}
    .fil2 {fill:#D1C8DB;fill-rule:nonzero}
    .fil0 {fill:#00A8D6;fill-rule:nonzero}
    .fil1 {fill:#00D1F2;fill-rule:nonzero}
   ]]>
  </style>
 </defs>
 <g id="Capa_x0020_1">
  <metadata id="CorelCorpID_0Corel-Layer"/>
  <g id="_1815524965616">
   <g>
    <g>
     <g>
      <path class="fil0" d="M232.19 88.82c2.45,2.61 6.43,2.61 8.88,0 2.45,-2.61 2.45,-6.84 0,-9.46l-19.02 -20.25c-2.45,-2.61 -6.43,-2.61 -8.88,0 -2.45,2.61 -2.45,6.84 0,9.46l11.25 11.95 7.77 8.3z"/>
      <path class="fil1" d="M241.07 38.86c-2.45,-2.61 -6.43,-2.61 -8.88,0l-19.02 20.25c-2.4,2.56 -2.55,6.56 -0.25,9.18l0.1 0.11 0.13 0.13c0.01,0.01 0.02,0.02 0.03,0.03 0.01,0.01 0.02,0.02 0.03,0.03l11.22 11.93c-6.04,-6.43 2.07,-16.68 2.07,-16.68l-0 0 14.58 -15.52c2.45,-2.61 2.45,-6.84 0,-9.46z"/>
     </g>
     <g>
      <path class="fil0" d="M257.44 38.86c-2.45,-2.61 -6.43,-2.61 -8.88,0 -2.45,2.61 -2.45,6.84 0,9.45l19.02 20.25c2.45,2.61 6.43,2.61 8.88,0 2.45,-2.61 2.45,-6.84 0,-9.46l-11.25 -11.95 -7.77 -8.3z"/>
      <path class="fil1" d="M248.56 88.82c2.45,2.61 6.43,2.61 8.88,0l19.02 -20.25c2.4,-2.56 2.55,-6.56 0.25,-9.18l-0.1 -0.11 -0.13 -0.13c-0.01,-0.01 -0.02,-0.02 -0.03,-0.03 -0.01,-0.01 -0.02,-0.02 -0.03,-0.03l-11.22 -11.93c6.04,6.43 -2.07,16.68 -2.07,16.68l0 0 -14.58 15.52c-2.45,2.61 -2.45,6.84 0,9.45z"/>
     </g>
    </g>
    <path class="fil2" d="M188.76 36.9c6.76,0 12.94,2.49 17.67,6.6l-6.19 7.12c-3.07,-2.67 -7.09,-4.29 -11.48,-4.29 -4.83,0 -9.21,1.96 -12.38,5.13 -3.17,3.17 -5.13,7.54 -5.13,12.38 0,4.83 1.96,9.21 5.13,12.38 3.17,3.17 7.54,5.13 12.38,5.13 4.39,0 8.41,-1.62 11.48,-4.29l6.19 7.12c-4.73,4.11 -10.91,6.6 -17.67,6.6 -7.44,0 -14.17,-3.02 -19.05,-7.89 -4.87,-4.87 -7.89,-11.61 -7.89,-19.05 0,-7.44 3.02,-14.17 7.89,-19.05 4.88,-4.88 11.61,-7.89 19.05,-7.89z"/>
    <path class="fil2" d="M304.61 36.91c7.09,0.23 13.48,3.19 18.16,7.88 4.87,4.88 7.89,11.61 7.89,19.05 0,7.44 -3.02,14.17 -7.89,19.05 -4.68,4.68 -11.08,7.65 -18.16,7.88l0 0.02 -0.89 0 -7.56 0 -0.89 0 -8.55 0 0 -53.88 8.55 0 0.89 0 7.56 0 0.89 0 0 0.01zm-8.44 9.42l0 35.01 7.56 0c4.83,0 9.21,-1.96 12.38,-5.13 3.17,-3.17 5.13,-7.54 5.13,-12.38 0,-4.83 -1.96,-9.21 -5.13,-12.38 -3.17,-3.17 -7.54,-5.13 -12.38,-5.13l-7.56 0z"/>
    <g>
     <path class="fil3" d="M371.31 36.9l-27.85 0c-2.6,0 -4.72,2.12 -4.72,4.72l0 0c0,2.6 2.12,4.72 4.72,4.72l27.85 0c2.6,0 4.72,-2.12 4.72,-4.72l0 0c0,-2.6 -2.12,-4.72 -4.72,-4.72z"/>
     <path class="fil3" d="M363.66 59.12l-20.2 0c-2.6,0 -4.72,2.12 -4.72,4.72l0 0c0,2.6 2.12,4.72 4.72,4.72l20.2 0c2.6,0 4.72,-2.12 4.72,-4.72l0 0c0,-2.6 -2.12,-4.72 -4.72,-4.72z"/>
     <path class="fil3" d="M371.31 81.34l-27.85 0c-2.6,0 -4.72,2.12 -4.72,4.72l0 0c0,2.6 2.12,4.72 4.72,4.72l27.85 0c2.6,0 4.72,-2.12 4.72,-4.72l0 0c0,-2.6 -2.12,-4.72 -4.72,-4.72z"/>
    </g>
    <path class="fil3" d="M384.47 36.9l9.43 0 6.09 0c5.89,0 11.22,2.39 15.08,6.25 3.86,3.86 6.25,9.19 6.25,15.08 0,5.89 -2.39,11.22 -6.25,15.08 -0.46,0.46 -0.93,0.89 -1.43,1.31 0.5,0.41 0.97,0.85 1.43,1.31 3.81,3.81 6.18,9.05 6.25,14.85l-9.87 0c-0.06,-3.07 -1.33,-5.85 -3.35,-7.87 -1.97,-1.97 -4.66,-3.23 -7.65,-3.35 -0.15,0 -0.31,0.01 -0.46,0.01l-6.09 0 0 11.21 -9.43 0 0 -53.88zm15.52 32.78c0.15,0 0.31,0 0.46,0.01 2.98,-0.12 5.67,-1.38 7.65,-3.35 2.07,-2.07 3.36,-4.94 3.36,-8.11 0,-3.17 -1.28,-6.03 -3.36,-8.11 -2.07,-2.07 -4.94,-3.36 -8.11,-3.36l0 0.03 -6.09 0 0 22.88 6.09 0 0 0.01z"/>
   </g>
   <g>
    <g>
     <path class="fil2" d="M23.96 111.56l62.67 0c5.45,0 10.4,-2.23 14,-5.83 3.6,-3.6 5.83,-8.56 5.83,-14 0,-5.45 -2.23,-10.4 -5.83,-14 -3.6,-3.6 -8.56,-5.83 -14,-5.83l-47.68 0 0 -16.11 47.68 0c9.89,0 18.88,4.04 25.39,10.55 6.51,6.51 10.55,15.5 10.55,25.39 0,9.89 -4.04,18.88 -10.55,25.39 -6.51,6.51 -15.5,10.55 -25.39,10.55l-78.78 0 0 -27.89 16.11 0 0 11.78zm-16.11 -27.89l0 -83.67 78.78 0c9.89,0 18.88,4.04 25.39,10.55 6.51,6.51 10.55,15.5 10.55,25.39 0,5.55 -1.27,10.81 -3.54,15.52 -4.62,-2.87 -9.69,-4.93 -15.02,-6.02 1.56,-2.83 2.44,-6.06 2.44,-9.49 0,-5.45 -2.23,-10.4 -5.83,-14 -3.6,-3.6 -8.56,-5.83 -14,-5.83l-62.67 0 0 67.56 -16.11 0z"/>
     <polygon class="fil2" points="94.77,99.78 32.34,99.78 32.34,27.89 94.77,27.89 94.77,44 48.46,44 48.46,83.67 94.77,83.67 "/>
    </g>
    <rect class="fil4" x="-0" y="83.67" width="32.34" height="16.11"/>
   </g>
  </g>
 </g>
</svg>
